<?xml version="1.0"?>
<svg xmlns="http://www.w3.org/2000/svg" xmlns:xlink="http://www.w3.org/1999/xlink" version="1.1" id="Capa_1" x="0px" y="0px" width="512px" height="512px" viewBox="0 0 32 32" style="enable-background:new 0 0 32 32;" xml:space="preserve" class=""><g transform="matrix(-1 0 0 1 32 0)"><g>
	<path d="M16.368,27.721h-3.423l0.442,2.491h3.351l1.076,1.614H5.703l1.076-1.614h3.15l0.442-2.491H6.88v-2.117h7.784l1.695-7.66   l2.07,0.459l-2.052,9.263l-0.01-0.002V27.721z M13.643,13.758c1.784,0,3.23-1.446,3.23-3.229c0-1.784-1.446-3.23-3.23-3.23   c-1.784,0-3.23,1.446-3.23,3.23C10.413,12.311,11.859,13.758,13.643,13.758z M7.259,24.795h1.808h2.86h1.924   c0,0,1.689-8.264,1.876-9.176c0.187-0.912,0.109-1.353-0.497-1.356c-0.605-0.005-3.028,0-3.028,0v0.001l-0.005-0.002   c0,0-2.619,5.523-4.942,5.375c-1.263,0.02-1.227,1.311,1.332,1.396c0.589,0.02,1.179-0.301,1.741-0.799l-0.439,1.59   c-1.64-0.004-3.745,0.006-4.22,0.072c-0.661,0.092-3.67,4.979-4.708,6.693H0v1.459h4.699V28.59H4.623L7.259,24.795z M28.575,7.232   c1.892,0,3.425-1.58,3.425-3.529c0-1.949-1.533-3.529-3.425-3.529s-3.425,1.58-3.425,3.529C25.15,5.652,26.684,7.232,28.575,7.232z    M30.827,8.747c1.38,1.122,0.384,8.174,0.135,10.251c-0.08,0.662-0.541,0.98-1.146,1.1v10.085v1.23v0.34h-5.135v-1.57h1.51   l-0.519-5.339l0.586-5.429c-0.284-0.244,0.035-7.572,0.064-8.301c0.019-0.479-2.693-0.145-4.556,0.142l0.633,2.807l-2.658,0.601   l-1.561-6.909L18.5,7.683l-0.128-0.569l0.157-0.036L18.488,6.89l0.502-0.112l-0.055-0.246c-0.069-0.006-0.125-0.059-0.125-0.125   c0-0.048,0.03-0.083,0.071-0.105l-0.063-0.285l0.836-0.188l0.173,0.763l0.442-0.101l0.041,0.186l0.146-0.031l0.129,0.566   l0.257-0.057l0.534,2.365C23.521,9.406,25.33,9,26.368,8.603C27.438,8.303,29.589,7.74,30.827,8.747z M20.314,14.096L18.959,8.09   l-0.337,0.075l1.354,6.007L20.314,14.096z M19.775,14.805l0.096,0.424l2.658-0.604l-0.096-0.424L19.775,14.805z M17.125,6.942   L17.096,6.81l-1.988,0.428l0.028,0.132L17.125,6.942z M18.484,6.374l-0.01-0.134l-2.738,0.2l0.01,0.134L18.484,6.374z M16.25,7.917   l2.309-1.219L18.497,6.58l-2.31,1.219L16.25,7.917z" data-original="#000000" class="active-path" data-old_color="#a66a4f" fill="#a66a4f"/>
</g></g> </svg>
