<?xml version="1.0" encoding="iso-8859-1"?>
<!-- Generator: Adobe Illustrator 16.0.0, SVG Export Plug-In . SVG Version: 6.00 Build 0)  -->
<!DOCTYPE svg PUBLIC "-//W3C//DTD SVG 1.1//EN" "http://www.w3.org/Graphics/SVG/1.1/DTD/svg11.dtd">
<svg xmlns="http://www.w3.org/2000/svg" xmlns:xlink="http://www.w3.org/1999/xlink" version="1.1" id="Capa_1" x="0px" y="0px" width="512px" height="512px" viewBox="0 0 31.393 31.392" style="enable-background:new 0 0 31.393 31.392;" xml:space="preserve">
<g>
	<g>
		<ellipse cx="28.285" cy="4.57" rx="3.107" ry="3.203" fill="#a66a4f"/>
		<path d="M30.329,9.147c-1.124-0.913-3.076-0.403-4.046-0.131c-0.756,0.29-2.934,0.674-4.219,0.885    c-0.041-0.151-0.107-0.295-0.205-0.422C21.588,9.125,21.145,8.943,20.707,9c-0.365-0.426-1.016-0.55-1.512-0.296    c-0.426-0.389-1.125-0.427-1.598-0.067c-0.266,0.202-0.437,0.496-0.479,0.826c-0.03,0.227,0.006,0.449,0.094,0.653    c-0.461,0.218-0.872,0.556-1.178,1.008c-0.822,1.222-0.601,2.838,0.456,3.802H16.27l-0.088,0.24    c-0.084,0.229-0.1,0.444-0.068,0.648c-0.546-0.367-1.053-0.707-1.053-0.707l-0.105,0.08l-0.056-0.08c0,0-4.774,2.827-6.446,1.536    c-0.959-0.625-1.587,0.363,0.295,1.727c0.423,0.305,1.009,0.37,1.663,0.29L8.1,20.552c-1.56,0.002-3.155,0.017-3.507,0.064    C3.866,20.72,0,27.23,0,27.23l3.271,0.003l2.768-3.983h5.367v-0.031c0.349-0.33,5.128-4.863,5.674-5.382    c0.186-0.174,0.318-0.327,0.408-0.466c0.045,0.023,0.089,0.047,0.133,0.066v1.229l-5.401,5.316H5.693v1.924h3.168l-0.401,2.26    H5.602l-0.977,1.467h10.992l-0.977-1.467H11.6l-0.402-2.26h3.107v-1.277l3.315-3.264v8.268v0.365h0.366h4.58h0.367v-0.365V15.33    v-0.362l-0.363-0.004c-0.019,0-0.928-0.01-2.149-0.019c0.177-0.158,0.337-0.337,0.476-0.541c0.166-0.246,0.289-0.509,0.371-0.779    c0.168,0.083,0.354,0.127,0.549,0.127c0.276,0,0.539-0.088,0.76-0.256c0.265-0.203,0.436-0.497,0.479-0.827    c0.045-0.331-0.043-0.659-0.244-0.923c-0.027-0.035-0.058-0.068-0.09-0.102c0.01-0.042,0.01-0.084,0.014-0.126    c1.479-0.216,3.52-0.468,3.51-0.222c-0.026,0.661-0.316,7.313-0.059,7.533l-0.531,4.927l0.47,4.846h-1.371v1.425h4.661v-0.308    v-1.117v-9.153c0.549-0.108,0.967-0.397,1.039-0.997C30.678,16.566,31.582,10.166,30.329,9.147z M22.292,11.915    c0.054,0.043,0.095,0.084,0.128,0.128c0.123,0.16,0.178,0.36,0.148,0.562c-0.025,0.2-0.129,0.38-0.291,0.503    c-0.133,0.102-0.293,0.156-0.461,0.156c-0.164,0-0.315-0.054-0.442-0.146c0.126-1.058-0.326-2.146-1.271-2.782    c-0.744-0.502-1.637-0.615-2.438-0.389c-0.06-0.129-0.083-0.272-0.063-0.417c0.027-0.2,0.131-0.379,0.293-0.502    c0.323-0.248,0.817-0.181,1.064,0.143l0.148,0.193l0.193-0.148c0.325-0.248,0.816-0.182,1.065,0.144l0.202-0.135l-0.176,0.181    l0.099,0.151l0.173-0.048c0.294-0.084,0.619,0.025,0.807,0.269c0.047,0.063,0.079,0.132,0.105,0.204    c-0.301,0.047-0.492,0.076-0.492,0.076l0.145,1.695c0,0,0.41-0.068,0.994-0.157c-0.005,0.016-0.005,0.031-0.011,0.047l-0.06,0.165    L22.292,11.915z" fill="#a66a4f"/>
		<circle cx="19.076" cy="6.492" r="0.611" fill="#a66a4f"/>
		<circle cx="21.396" cy="7.773" r="0.611" fill="#a66a4f"/>
		<circle cx="20.786" cy="5.793" r="0.463" fill="#a66a4f"/>
		<circle cx="19.688" cy="4.57" r="0.269" fill="#a66a4f"/>
		<circle cx="21.666" cy="3.756" r="0.269" fill="#a66a4f"/>
	</g>
</g>
<g>
</g>
<g>
</g>
<g>
</g>
<g>
</g>
<g>
</g>
<g>
</g>
<g>
</g>
<g>
</g>
<g>
</g>
<g>
</g>
<g>
</g>
<g>
</g>
<g>
</g>
<g>
</g>
<g>
</g>
</svg>
