<?xml version="1.0"?>
<svg xmlns="http://www.w3.org/2000/svg" xmlns:xlink="http://www.w3.org/1999/xlink" version="1.1" id="Capa_1" x="0px" y="0px" width="512px" height="512px" viewBox="0 0 31.916 31.916" style="enable-background:new 0 0 31.916 31.916;" xml:space="preserve"><g><g transform="matrix(-1 3.67394e-16 3.67394e-16 1 31.916 -1.77636e-15)"><g>
	<g>
		<polygon points="12.277,26.514 11.853,24.122 15.141,24.122 15.141,22.771 21.262,16.746 19.833,15.294 12.934,22.086     6.026,22.086 6.026,24.122 9.38,24.122 8.954,26.514 5.93,26.514 4.896,28.065 16.531,28.065 15.496,26.514   " data-original="#000000" class="active-path" data-old_color="#a66a4f" fill="#a66a4f"/>
		<path d="M12.072,21.311v-0.034c0.383-0.376,5.782-5.674,6.399-6.278c0.639-0.625,0.812-1.018,0.332-1.347    c-0.479-0.329-2.412-1.626-2.412-1.626l0,0l-0.004-0.004c0,0-5.053,2.994-6.822,1.628c-1.016-0.663-1.681,0.384,0.312,1.825    c0.459,0.332,1.1,0.396,1.814,0.3L8.56,18.455c-1.646,0.003-3.326,0.018-3.696,0.07C4.093,18.633,0,25.524,0,25.524l3.462,0.002    l2.929-4.216H12.072z" data-original="#000000" class="active-path" data-old_color="#a66a4f" fill="#a66a4f"/>
		<path d="M23.628,21.57l0.048-0.232h-4.469l0.02,0.211c0.014,0.14,0.104,0.989,0.438,1.556h-1.475v1.019h2.596v6.094h-1.076v0.961    h3.244v-0.961h-0.984v-6.094h2.362v-1.019h-1.296C23.415,22.545,23.6,21.707,23.628,21.57z" data-original="#000000" class="active-path" data-old_color="#a66a4f" fill="#a66a4f"/>
		<path d="M28.238,8.294c2.027,0,3.678-1.694,3.678-3.778s-1.648-3.778-3.678-3.778s-3.68,1.694-3.68,3.777    C24.559,6.599,26.209,8.294,28.238,8.294z" data-original="#000000" class="active-path" data-old_color="#a66a4f" fill="#a66a4f"/>
		<path d="M30.4,9.361c-1.188-0.967-3.256-0.428-4.281-0.139c-1.163,0.446-6.319,0.823-6.319,0.823l0.048,0.709l-0.07-0.006    l0.005-0.053l-0.087-0.007l-0.004,0.055l-0.059-0.005l0.004-0.053l-0.086-0.007l-0.004,0.054l-0.099-0.008l0.004-0.054    l-0.086-0.005l-0.005,0.054l-0.098-0.007l0.004-0.055l-0.086-0.006l-0.004,0.054l-0.06-0.004l0.004-0.054l-0.086-0.007    l-0.004,0.055l-0.072-0.006l0.004-0.054l-0.084-0.004l-0.004,0.055l-0.366-0.028l0.004-0.039l-0.35-0.478l0.005-0.059l-0.38-0.027    l-0.102,1.402l0.381,0.027l0.005-0.052l0.411-0.421V11.01l0.002-0.029l0.365,0.026l-0.004,0.053l0.086,0.007l0.004-0.054    l0.072,0.005l-0.004,0.054l0.085,0.007l0.005-0.054l0.059,0.004l-0.002,0.054l0.084,0.006l0.005-0.054l0.099,0.007l-0.004,0.054    l0.086,0.006l0.004-0.054l0.1,0.007l-0.004,0.054l0.084,0.007l0.004-0.054l0.06,0.004l-0.003,0.054l0.085,0.006l0.005-0.054    l0.1,0.008l-0.004,0.053l0.022,0.002l0.052,0.778c0.047-0.005,0.11-0.013,0.192-0.021c-0.083,0.008-0.146,0.016-0.192,0.021l0,0    c-0.052,0.005-0.08,0.009-0.08,0.009l0.08-0.009l0,0l0.641-0.067c0.002,0,0.004-0.001,0.007-0.001l-0.646,0.068v0.001l0.845-0.09    c0.354-0.035,0.779-0.076,1.237-0.117v-0.001c1.804-0.162,4.078-0.317,4.068-0.07c-0.027,0.7-0.334,7.739-0.062,7.974l0.026,4.931    l0.498,5.129h-1.452v1.508h4.936v-0.324V29.67v-9.688c0.58-0.114,0.434-0.139,0.51-0.771C30.771,17.213,31.729,10.438,30.4,9.361z     M18.124,10.709l0.067,0.005l-0.01,0.158l-0.068-0.005L18.124,10.709z M17.741,11.384l0.088-1.239l0.063,0.005l-0.088,1.239    L17.741,11.384z M17.854,11.394l0.088-1.24l0.063,0.005l-0.089,1.24L17.854,11.394z M18.023,11.406L17.961,11.4l0.088-1.239    l0.064,0.005L18.023,11.406z M18.085,11.267l0.021-0.282l0.238,0.017L18.085,11.267z M18.133,10.592l0.021-0.284l0.22,0.302    L18.133,10.592z" data-original="#000000" class="active-path" data-old_color="#a66a4f" fill="#a66a4f"/>
		<path d="M17.811,12.397c1.205,0.812,2.771,0.663,3.806-0.266c-0.368,0.034-0.712,0.068-0.995,0.098l-0.734,0.078v-0.01    l-0.176,0.018l-0.234,0.024c-0.039,0.008-0.076,0.023-0.119,0.023c-0.211,0-0.391-0.122-0.485-0.295    c-0.101,0.096-0.235,0.156-0.388,0.156c-0.271,0-0.485-0.195-0.539-0.451c-0.104-0.024-0.2-0.069-0.272-0.144    c-0.053,0.016-0.104,0.032-0.161,0.032c-0.312,0-0.562-0.252-0.562-0.563c0-0.137,0.056-0.258,0.137-0.355    c-0.081-0.098-0.137-0.219-0.137-0.355c0-0.312,0.252-0.563,0.562-0.563c0.15,0,0.287,0.062,0.389,0.158    c0.101-0.097,0.236-0.158,0.388-0.158c0.215,0,0.396,0.125,0.489,0.302c0.025-0.004,0.048-0.015,0.074-0.015    c0.121,0,0.227,0.046,0.318,0.111l-0.01-0.137L19.135,9.7l0.385-0.027c0.679-0.05,1.893-0.15,3.099-0.278    c-0.119-0.842-0.576-1.632-1.336-2.144c-1.421-0.957-3.351-0.583-4.308,0.838C16.016,9.51,16.391,11.439,17.811,12.397z" data-original="#000000" class="active-path" data-old_color="#a66a4f" fill="#a66a4f"/>
	</g>
</g></g></g> </svg>
