<?xml version="1.0" encoding="iso-8859-1"?>
<!-- Generator: Adobe Illustrator 16.0.0, SVG Export Plug-In . SVG Version: 6.00 Build 0)  -->
<!DOCTYPE svg PUBLIC "-//W3C//DTD SVG 1.1//EN" "http://www.w3.org/Graphics/SVG/1.1/DTD/svg11.dtd">
<svg xmlns="http://www.w3.org/2000/svg" xmlns:xlink="http://www.w3.org/1999/xlink" version="1.1" id="Capa_1" x="0px" y="0px" width="512px" height="512px" viewBox="0 0 375.548 375.547" style="enable-background:new 0 0 375.548 375.547;" xml:space="preserve">
<g>
	<g>
		<path d="M160.122,85.646c20.932,0,37.898,16.967,37.898,37.904c0,20.932-16.967,37.904-37.898,37.904    c-20.937,0-37.903-16.973-37.903-37.904C122.219,102.612,139.186,85.646,160.122,85.646z" fill="#a66a4f"/>
		<path d="M335.343,2.049c22.21,0,40.205,18.543,40.205,41.418s-17.995,41.419-40.205,41.419c-22.209,0-40.192-18.543-40.192-41.419    S313.134,2.049,335.343,2.049z" fill="#a66a4f"/>
		<path d="M361.78,102.659c-14.526-11.817-39.772-5.237-52.313-1.71c-14.562,5.599-42.015,11.262-73.835,11.11    c-7.135-10.713-41.955-60.09-41.955-60.09l-2.919-1.804l30.15,60.254l8.011,2.668v4.052l-0.794-1.95l-6.562-2.201    c0.794,3.17,1.354,5.237,1.518,5.657c4.438,18.45-5.138,35.767-5.406,36.246c-3.538,4.898-4.355,11.957-1.494,18.426    c4.063,9.213,14.105,13.773,22.361,10.136c8.244-3.655,11.643-14.129,7.566-23.366c-0.012-0.023-0.035-0.047-0.047-0.082    c0.047,0.035,0.105,0.07,0.105,0.07l-9.938-24.75c1.238-0.216,2.616-0.443,4.088-0.695l11.467,23.547    c0.093,0.31,0.21,0.607,0.35,0.905c4.087,9.236,14.106,13.791,22.361,10.142c8.232-3.638,11.643-14.124,7.544-23.366    c-2.907-6.585-8.84-10.76-14.981-11.297c-0.537-0.146-3.714-0.969-7.999-2.849c22.782-3.299,50.106-6.224,49.908-1.238    c-0.339,8.547-4.087,94.538-0.759,97.398l-6.867,63.71l6.072,62.66h-17.726v18.414h60.277v-3.993v-14.433V235.872    c7.1-1.401,12.494-5.161,13.452-12.892C366.288,198.598,377.965,115.837,361.78,102.659z M226.221,108.363    c-1.413,0.619-3.06-0.023-3.679-1.424c-0.63-1.425,0-3.06,1.425-3.696c1.425-0.631,3.06,0.023,3.69,1.448    C228.276,106.092,227.634,107.727,226.221,108.363z M241.237,162.23c2.896,6.562,0.713,13.907-4.869,16.371    c-5.559,2.464-12.471-0.864-15.367-7.438c-2.919-6.568-0.735-13.908,4.857-16.372C231.44,152.304,238.33,155.656,241.237,162.23z     M261.801,140.551c5.559-2.464,12.448,0.876,15.367,7.438c2.896,6.562,0.724,13.907-4.858,16.371    c-5.581,2.464-12.471-0.864-15.39-7.438C254.035,150.354,256.219,143.015,261.801,140.551z" fill="#a66a4f"/>
		<path d="M227.634,96.715l-22.023-54.97l-0.49,3.591c0,0,3.27,13.691,7.029,29.222C217.404,82.055,222.986,90.03,227.634,96.715z" fill="#a66a4f"/>
		<path d="M44.817,309.461c3.871,0.677,7.853,1.283,11.864,1.867c0.415,0.07,0.823,0.117,1.244,0.176    c18.567,2.744,38.056,4.705,55.829,5.324c1.062,0.035,2.09,0.047,3.141,0.082c2.248,0.07,4.461,0.105,6.65,0.117    c0.619,0,1.278,0.035,1.903,0.035c0.788,0,1.518-0.023,2.283-0.035c1.244-0.012,2.464-0.023,3.667-0.047    c1.513-0.047,2.978-0.094,4.449-0.152c1.174-0.059,2.347-0.105,3.491-0.175c1.401-0.093,2.75-0.198,4.116-0.292    c1.098-0.105,2.213-0.198,3.275-0.304c1.302-0.128,2.534-0.292,3.766-0.455c1.016-0.14,2.032-0.257,2.989-0.421    c1.197-0.198,2.306-0.42,3.445-0.654c0.888-0.162,1.792-0.326,2.633-0.525c1.109-0.268,2.125-0.583,3.153-0.875    c0.718-0.211,1.483-0.396,2.154-0.643c1.062-0.361,1.997-0.782,2.942-1.203c0.502-0.232,1.062-0.396,1.53-0.653    c1.337-0.677,2.545-1.401,3.562-2.207c0.525-0.409,1.039-0.923,1.529-1.519c0.204-0.244,0.386-0.537,0.578-0.816    c0.286-0.386,0.572-0.748,0.847-1.215c0.216-0.361,0.42-0.794,0.619-1.203c0.228-0.443,0.467-0.84,0.683-1.319    c0.216-0.455,0.409-0.969,0.602-1.46c0.187-0.514,0.403-0.98,0.596-1.506c0.192-0.549,0.356-1.109,0.537-1.693    c0.192-0.572,0.374-1.109,0.549-1.729c0.169-0.561,0.327-1.214,0.479-1.821c0.169-0.642,0.351-1.261,0.502-1.938    c0.146-0.631,0.274-1.284,0.421-1.914c0.169-0.748,0.321-1.473,0.479-2.242c0.128-0.631,0.239-1.285,0.345-1.939    c0.157-0.84,0.297-1.67,0.455-2.545c0.111-0.631,0.192-1.262,0.286-1.903c0.146-0.946,0.286-1.88,0.42-2.861    c0.082-0.606,0.158-1.237,0.228-1.821c0.14-1.074,0.263-2.125,0.391-3.199c0.064-0.561,0.123-1.133,0.181-1.705    c0.134-1.191,0.251-2.359,0.362-3.573c0.035-0.491,0.082-1.017,0.129-1.507c0.11-1.296,0.228-2.604,0.321-3.912    c0.041-0.467,0.076-0.945,0.099-1.424c0.094-1.39,0.205-2.779,0.274-4.204c0.023-0.374,0.047-0.747,0.059-1.12    c0.082-1.519,0.169-3.061,0.239-4.602c0.012-0.304,0.023-0.619,0.035-0.91c0.076-1.635,0.134-3.246,0.192-4.904    c0-0.223,0.012-0.444,0.023-0.689c0.047-1.717,0.094-3.422,0.146-5.115c0-0.081,0-0.128,0-0.175l0,0    c0.438-20.236-0.263-40.566-1.413-54.234c0-0.011,0-0.011,0-0.011c-0.012-0.14-0.023-0.251-0.035-0.392    c-0.123-1.308-0.239-2.563-0.351-3.742c-0.047-0.52-0.105-0.969-0.151-1.448c-0.082-0.765-0.17-1.53-0.251-2.248    c-0.059-0.444-0.123-0.888-0.182-1.308c-0.093-0.701-0.192-1.302-0.286-1.909c-0.046-0.333-0.093-0.683-0.157-0.981    c-0.14-0.835-0.298-1.629-0.438-2.248c-1.401-0.993-2.978-1.757-4.665-2.429c-0.082-0.035-0.158-0.07-0.239-0.105    c-1.688-0.66-3.492-1.15-5.383-1.518c-0.047-0.023-0.07-0.035-0.117-0.052c-0.012,0-0.023,0-0.035,0    c-13.05-2.627-29.847,0.251-37.093,0.239c-3.316,1.775-6.516,17.054-11.613,33.91c-0.654,2.184-1.326,4.344-2.043,6.528    c-0.012,0.046-0.035,0.117-0.047,0.163c-1.506,4.578-3.158,9.132-4.986,13.452c0,0,0,0,0,0.023    c-0.91,2.125-1.868,4.215-2.884,6.225c-0.023,0.058-0.059,0.128-0.094,0.197c-1.004,2.009-2.072,3.924-3.193,5.723    c-0.012,0.023-0.023,0.047-0.035,0.082c-3.421,5.522-7.345,10.029-11.922,12.773c0,0,0,0,0.012,0    c-3.585,2.149-7.567,3.235-12.016,2.861C44.42,243.812-4.677,301.065,44.817,309.461z" fill="#a66a4f"/>
		<path d="M192.088,324.641l0.117,0.023l24.066-108.714l-24.276-5.372l-1.816,8.126c0.578,37.543-2.16,83.936-14.392,93.465    c-8.18,6.387-25.123,9.645-50.352,9.645c-13.178,0-28.568-0.957-44.7-2.662v6.189h40.969l-5.202,29.215H79.55l-12.634,18.941    h142.151l-12.646-18.941h-39.3l-5.202-29.215h40.169V324.641z" fill="#a66a4f"/>
		<path d="M86.306,244.758c0.479,0.047,0.946,0.059,1.413,0.059c12.161,0,20.662-15.613,26.775-32.428    c-9.161,10.591-19.472,18.695-29.345,18.064C73.274,230.628,71.23,240.379,86.306,244.758z" fill="#a66a4f"/>
		<path d="M44.028,314.131c-7.129-1.203-12.208-3.34-15.869-5.885c-6.866,10.836-13.031,20.926-16.873,27.301H0v17.096h55.157    v-17.096h-0.905l12.506-18.029C59.215,316.538,51.584,315.417,44.028,314.131z" fill="#a66a4f"/>
	</g>
</g>
<g>
</g>
<g>
</g>
<g>
</g>
<g>
</g>
<g>
</g>
<g>
</g>
<g>
</g>
<g>
</g>
<g>
</g>
<g>
</g>
<g>
</g>
<g>
</g>
<g>
</g>
<g>
</g>
<g>
</g>
</svg>
