<?xml version="1.0" encoding="iso-8859-1"?>
<!-- Generator: Adobe Illustrator 16.0.0, SVG Export Plug-In . SVG Version: 6.00 Build 0)  -->
<!DOCTYPE svg PUBLIC "-//W3C//DTD SVG 1.1//EN" "http://www.w3.org/Graphics/SVG/1.1/DTD/svg11.dtd">
<svg xmlns="http://www.w3.org/2000/svg" xmlns:xlink="http://www.w3.org/1999/xlink" version="1.1" id="Capa_1" x="0px" y="0px" width="512px" height="512px" viewBox="0 0 31.506 31.506" style="enable-background:new 0 0 31.506 31.506;" xml:space="preserve">
<g>
	<g>
		<rect x="1.583" y="29.962" width="8.184" height="1.308" fill="#995437"/>
		<path d="M1.583,29.532h8.184V8.271H1.583V29.532z M2.594,9.767h1.035v18.482H2.594V9.767z" fill="#995437"/>
		<path d="M1.583,0v7.738h8.184V0H1.583z M3.628,7.367H2.594V0.432h1.035V7.367z" fill="#995437"/>
	</g>
	<g>
		<path d="M21.739,23.768v7.738h8.185v-7.738H21.739z M23.784,31.136H22.75V24.2h1.033V31.136z" fill="#995437"/>
		<g>
			<rect x="11.943" y="29.986" width="8.183" height="1.307" fill="#995437"/>
			<path d="M19.336,8.296V6.548h-0.449V5.977h-1.361V3.632l-2.573-0.001v2.346h-1.547v0.571H12.92v1.749h-0.976v21.26h8.183V8.296     H19.336z M13.99,28.273h-1.036V9.79h1.036V28.273z M16.261,5.407c-0.333,0-0.603-0.27-0.603-0.603s0.27-0.603,0.603-0.603     c0.333,0,0.603,0.27,0.603,0.603S16.594,5.407,16.261,5.407z" fill="#995437"/>
		</g>
		<circle cx="16.261" cy="4.805" r="0.246" fill="#995437"/>
	</g>
</g>
<g>
</g>
<g>
</g>
<g>
</g>
<g>
</g>
<g>
</g>
<g>
</g>
<g>
</g>
<g>
</g>
<g>
</g>
<g>
</g>
<g>
</g>
<g>
</g>
<g>
</g>
<g>
</g>
<g>
</g>
</svg>
