<?xml version="1.0"?>
<svg xmlns="http://www.w3.org/2000/svg" viewBox="-33 1 511 511.997" width="512px" height="512px"><path d="m442.164062 125.253906-215.207031-124.25c-2.320312-1.339844-5.179687-1.339844-7.5 0l-215.207031 124.25c-2.320312 1.339844-3.75 3.816406-3.75 6.496094v248.5c0 2.679688 1.429688 5.15625 3.75 6.496094l131.902344 76.15625c3.585937 2.070312 8.175781.839844 10.246094-2.746094 2.070312-3.585938.839843-8.175781-2.746094-10.246094l-128.152344-73.992187v-1.046875c1.394531 1.285156 3.214844 1.992187 5.078125 1.992187 1.273437 0 2.566406-.324219 3.746094-1.007812l10.390625-6c3.589844-2.070313 4.816406-6.65625 2.746094-10.242188-2.070313-3.589843-6.660157-4.816406-10.246094-2.746093l-10.390625 6c-.488281.28125-.929688.609374-1.324219.976562v-219.105469l190.703125 110.105469c-1.175781 2.207031-1.226563 4.949219.117187 7.277344 1.386719 2.40625 3.90625 3.75 6.5 3.75.972657 0 1.953126-.191406 2.886719-.585938v226.222656l-45.777343-26.429687c-3.589844-2.074219-8.175782-.839844-10.246094 2.746094-2.070313 3.585937-.839844 8.171875 2.746094 10.246093l57.027343 32.921876c1.160157.671874 2.453125 1.007812 3.75 1.007812 1.292969 0 2.589844-.335938 3.75-1.007812l215.207031-124.25c2.320313-1.339844 3.75-3.8125 3.75-6.492188v-248.5c0-2.679688-1.429687-5.15625-3.75-6.496094zm-211.457031 117.753906v-2.636718c0-4.144532-3.355469-7.5-7.5-7.5-4.140625 0-7.5 3.355468-7.5 7.5v2.636718l-192.707031-111.257812 192.707031-111.261719v9.898438c0 4.140625 3.359375 7.5 7.5 7.5 4.144531 0 7.5-3.359375 7.5-7.5v-9.898438l192.707031 111.261719zm0 248.5v-226.21875c.933594.390626 1.914063.582032 2.886719.582032 2.589844 0 5.113281-1.34375 6.5-3.75 1.34375-2.324219 1.292969-5.070313.117188-7.277344l190.703124-110.105469v219.101563c-.398437-.363282-.835937-.695313-1.324218-.972656l-10.390625-6c-3.589844-2.074219-8.175781-.84375-10.246094 2.746093-2.070313 3.585938-.84375 8.171875 2.746094 10.242188l10.390625 6c1.183594.683593 2.472656 1.007812 3.746094 1.007812 1.863281 0 3.679687-.707031 5.078124-1.992187v1.046875zm0 0" fill="#FFFFFF"/><path d="m338.566406 310.3125-20.585937-11.886719c-3.589844-2.070312-8.175781-.839843-10.246094 2.746094s-.839844 8.175781 2.746094 10.246094l20.585937 11.886719c1.183594.679687 2.472656 1.003906 3.746094 1.003906 2.589844 0 5.113281-1.34375 6.5-3.75 2.070312-3.585938.84375-8.175782-2.746094-10.246094zm0 0" fill="#FFFFFF"/><path d="m287.957031 281.09375-20.585937-11.886719c-3.585938-2.070312-8.175782-.84375-10.246094 2.746094-2.070312 3.585937-.839844 8.175781 2.746094 10.246094l20.585937 11.886719c1.183594.679687 2.472657 1.003906 3.742188 1.003906 2.59375 0 5.113281-1.34375 6.503906-3.75 2.070313-3.585938.839844-8.175782-2.746094-10.246094zm0 0" fill="#FFFFFF"/><path d="m389.175781 339.53125-20.585937-11.886719c-3.589844-2.070312-8.175782-.839843-10.246094 2.746094s-.839844 8.175781 2.746094 10.246094l20.585937 11.886719c1.183594.679687 2.472657 1.003906 3.742188 1.003906 2.59375 0 5.113281-1.34375 6.503906-3.75 2.070313-3.585938.839844-8.175782-2.746094-10.246094zm0 0" fill="#FFFFFF"/><path d="m165.957031 294.085938 20.585938-11.886719c3.585937-2.070313 4.816406-6.660157 2.746093-10.246094-2.070312-3.585937-6.660156-4.816406-10.246093-2.746094l-20.585938 11.886719c-3.585937 2.070312-4.816406 6.660156-2.746093 10.246094 1.390624 2.40625 3.910156 3.75 6.503906 3.75 1.269531 0 2.558594-.324219 3.742187-1.003906zm0 0" fill="#FFFFFF"/><path d="m77.824219 327.648438-20.585938 11.886718c-3.585937 2.070313-4.816406 6.65625-2.746093 10.242188 1.390624 2.40625 3.910156 3.753906 6.503906 3.753906 1.273437 0 2.5625-.328125 3.742187-1.007812l20.585938-11.886719c3.585937-2.070313 4.816406-6.65625 2.746093-10.246094-2.074218-3.585937-6.660156-4.8125-10.246093-2.742187zm0 0" fill="#FFFFFF"/><path d="m128.433594 298.429688-20.585938 11.882812c-3.585937 2.074219-4.816406 6.660156-2.746094 10.246094 1.390626 2.40625 3.910157 3.75 6.503907 3.75 1.269531 0 2.5625-.324219 3.742187-1.003906l20.585938-11.886719c3.585937-2.070313 4.816406-6.65625 2.746094-10.246094-2.070313-3.585937-6.660157-4.816406-10.246094-2.742187zm0 0" fill="#FFFFFF"/><path d="m223.207031 174.433594c-4.140625 0-7.5 3.355468-7.5 7.5v23.769531c0 4.140625 3.359375 7.5 7.5 7.5 4.144531 0 7.5-3.359375 7.5-7.5v-23.769531c0-4.144532-3.359375-7.5-7.5-7.5zm0 0" fill="#FFFFFF"/><path d="m223.207031 57.554688c-4.140625 0-7.5 3.359374-7.5 7.5v23.769531c0 4.144531 3.359375 7.5 7.5 7.5 4.144531 0 7.5-3.355469 7.5-7.5v-23.769531c0-4.140626-3.359375-7.5-7.5-7.5zm0 0" fill="#FFFFFF"/><path d="m223.207031 115.992188c-4.140625 0-7.5 3.359374-7.5 7.5v23.769531c0 4.144531 3.359375 7.5 7.5 7.5 4.144531 0 7.5-3.355469 7.5-7.5v-23.769531c0-4.140626-3.359375-7.5-7.5-7.5zm0 0" fill="#FFFFFF"/></svg>
