<?xml version="1.0"?>
<svg xmlns="http://www.w3.org/2000/svg" height="512px" version="1.1" viewBox="0 0 600 600" width="512px">
<g id="surface1">
<path d="M 450 300 C 367.15625 300 300 367.15625 300 450 C 300 532.84375 367.15625 600 450 600 C 532.84375 600 600 532.84375 600 450 C 599.90625 367.195312 532.804688 300.09375 450 300 Z M 450 580 C 378.203125 580 320 521.796875 320 450 C 320 378.203125 378.203125 320 450 320 C 521.796875 320 580 378.203125 580 450 C 579.917969 521.761719 521.761719 579.917969 450 580 Z M 450 580 " style=" fill-rule:nonzero;fill-opacity:1;" stroke="#FFFFFF" fill="#FFFFFF"/>
<path d="M 460 350 L 440 350 L 440 440 L 350 440 L 350 460 L 440 460 L 440 540 L 460 540 L 460 460 L 550 460 L 550 440 L 460 440 Z M 460 350 " style=" fill-rule:nonzero;fill-opacity:1;" stroke="#FFFFFF" fill="#FFFFFF"/>
<path d="M 570 0 L 350 0 C 333.433594 0 320 13.433594 320 30 L 320 250 C 320 266.566406 333.433594 280 350 280 L 570 280 C 586.566406 280 600 266.566406 600 250 L 600 30 C 600 13.433594 586.566406 0 570 0 Z M 580 250 C 580 255.523438 575.523438 260 570 260 L 350 260 C 344.476562 260 340 255.523438 340 250 L 340 30 C 340 24.476562 344.476562 20 350 20 L 570 20 C 575.523438 20 580 24.476562 580 30 Z M 580 250 " style=" fill-rule:nonzero;fill-opacity:1;" stroke="#FFFFFF" fill="#FFFFFF"/>
<path d="M 250 0 L 30 0 C 13.433594 0 0 13.433594 0 30 L 0 250 C 0 266.566406 13.433594 280 30 280 L 250 280 C 266.566406 280 280 266.566406 280 250 L 280 30 C 280 13.433594 266.566406 0 250 0 Z M 260 250 C 260 255.523438 255.523438 260 250 260 L 30 260 C 24.476562 260 20 255.523438 20 250 L 20 30 C 20 24.476562 24.476562 20 30 20 L 250 20 C 255.523438 20 260 24.476562 260 30 Z M 260 250 " style=" fill-rule:nonzero;fill-opacity:1;" stroke="#FFFFFF" fill="#FFFFFF"/>
<path d="M 250 320 L 30 320 C 13.433594 320 0 333.433594 0 350 L 0 570 C 0 586.566406 13.433594 600 30 600 L 250 600 C 266.566406 600 280 586.566406 280 570 L 280 350 C 280 333.433594 266.566406 320 250 320 Z M 260 570 C 260 575.523438 255.523438 580 250 580 L 30 580 C 24.476562 580 20 575.523438 20 570 L 20 350 C 20 344.476562 24.476562 340 30 340 L 250 340 C 255.523438 340 260 344.476562 260 350 Z M 260 570 " style=" fill-rule:nonzero;fill-opacity:1;" stroke="#FFFFFF" fill="#FFFFFF"/>
</g>
</svg>
