<?xml version="1.0" encoding="iso-8859-1"?>
<!-- Generator: Adobe Illustrator 16.0.0, SVG Export Plug-In . SVG Version: 6.00 Build 0)  -->
<!DOCTYPE svg PUBLIC "-//W3C//DTD SVG 1.1//EN" "http://www.w3.org/Graphics/SVG/1.1/DTD/svg11.dtd">
<svg xmlns="http://www.w3.org/2000/svg" xmlns:xlink="http://www.w3.org/1999/xlink" version="1.1" id="Capa_1" x="0px" y="0px" width="512px" height="512px" viewBox="0 0 565.23 565.23" style="enable-background:new 0 0 565.23 565.23;" xml:space="preserve">
<g>
	<g>
		<path d="M523.82,282.456l-131.672,10.392c-8.636,0.68-15.637,6.512-15.637,13.029c0,6.519,7.001,12.345,15.637,13.03    l131.672,10.392c8.635,0.679,15.636-5.79,15.636-14.449v-17.938C539.456,288.239,532.455,281.771,523.82,282.456z" fill="#FFFFFF"/>
		<path d="M295.709,565.23h26.708c8.666,0,15.135-7.001,14.449-15.637l-12.681-160.631c-0.68-8.636-7.454-15.637-15.122-15.637    c-7.669,0-14.438,7.001-15.123,15.637L281.26,549.594C280.574,558.229,287.05,565.23,295.709,565.23z" fill="#FFFFFF"/>
		<path d="M356.756,258.178c4.523,4.522,13.525,3.623,20.117-2.001l98.158-83.789c6.592-5.625,6.965-15.153,0.839-21.279    l-12.038-12.038c-6.126-6.126-15.655-5.753-21.279,0.838l-83.795,98.159C353.133,244.653,352.239,253.662,356.756,258.178z" fill="#FFFFFF"/>
		<path d="M377.913,354.531c-6.592-5.624-16.059-6.053-21.157-0.961c-5.098,5.092-4.663,14.565,0.961,21.157L454.756,488.4    c5.624,6.591,15.153,6.965,21.279,0.838l16.39-16.389c6.126-6.126,5.752-15.649-0.839-21.279L377.913,354.531z" fill="#FFFFFF"/>
		<path d="M147.005,510.598l114.793-134.475c5.624-6.592,5.428-16.684-0.435-22.553c-5.863-5.862-15.961-6.059-22.552-0.435    L104.343,467.929c-6.591,5.624-6.964,15.153-0.838,21.279l22.228,22.228C131.858,517.562,141.381,517.183,147.005,510.598z" fill="#FFFFFF"/>
		<path d="M334.981,243.6c5.802,2.412,13.702-1.878,17.649-9.59l57.547-112.388c3.947-7.711,0.667-16.659-7.332-19.988    l-14.938-6.218c-7.999-3.33-16.665,0.648-19.352,8.886l-39.198,120.026C326.664,232.554,329.186,241.189,334.981,243.6z" fill="#FFFFFF"/>
		<path d="M524.548,368.828L391.01,325.217c-8.237-2.687-17.044,0.257-19.676,6.579c-2.632,6.321,1.487,14.645,9.198,18.592    l125.038,64.021c7.711,3.947,16.665,0.667,19.994-7.331l7.864-18.899C536.758,380.181,532.779,371.515,524.548,368.828z" fill="#FFFFFF"/>
		<path d="M283.145,368.148c-7.412-3.085-16.622,0.667-20.569,8.378L185.06,527.911c-3.947,7.711-0.667,16.658,7.332,19.987    l27.148,11.298c7.999,3.329,16.659-0.648,19.352-8.886l52.797-161.679C294.381,380.407,290.55,371.232,283.145,368.148z" fill="#FFFFFF"/>
		<path d="M371.426,280.167c2.467,5.979,11.145,8.666,19.389,6.003l124.584-40.208c8.244-2.662,12.253-11.31,8.948-19.321    l-6.702-16.261c-3.298-8.011-12.239-11.322-19.963-7.399l-116.733,59.26C373.226,266.165,368.96,274.194,371.426,280.167z" fill="#FFFFFF"/>
		<path d="M394.59,546.828l23.574-9.719c8.012-3.299,11.322-12.24,7.399-19.964l-71.127-140.104    c-3.923-7.724-12.729-11.665-19.676-8.807c-6.946,2.864-10.416,11.866-7.754,20.11l48.256,149.529    C377.932,546.118,386.579,550.127,394.59,546.828z" fill="#FFFFFF"/>
		<path d="M246.7,331.581c-2.583-6.267-9.021-10.146-15.698-10.146c6.157-2.583,10.612-8.696,10.612-15.558    c0-6.523-4.015-12.423-9.707-15.208c6.297-0.422,12.234-4.345,14.737-10.367l0.288-0.691c2.252-5.416,1.298-11.567-1.916-16.224    c5.49,1.138,11.475-0.331,15.594-4.443l1.518-1.518c3.972-3.972,5.496-9.688,4.578-15.019c4.565,2.889,10.429,3.678,15.612,1.536    l2.081-0.856c4.914-2.026,8.421-6.34,9.805-11.267c3.157,3.984,8.011,6.609,13.292,6.609h3.134    c8.666,0,16.242-7.001,16.922-15.636l16.353-207.156C344.59,7.001,338.115,0,329.455,0h-40.784    c-8.666,0-15.134,7.001-14.449,15.636l15.153,191.954L232.147,30.263c-2.662-8.244-11.31-12.252-19.321-8.947L176.834,36.15    c-8.011,3.299-11.322,12.24-7.399,19.964l85.962,169.334L132.587,81.592c-5.625-6.591-15.153-6.965-21.279-0.838l-27.369,27.369    c-6.126,6.126-5.753,15.648,0.838,21.279l145.221,123.973L68.755,170.815c-7.711-3.947-16.658-0.667-19.988,7.332l-13.758,33.048    c-3.329,7.999,0.649,16.665,8.88,19.352l178.123,58.17L41.411,274.458c-8.636-0.68-15.637,5.79-15.637,14.449v33.948    c0,8.666,7.001,15.135,15.637,14.449l182.143-14.382L52.647,378.081c-8.244,2.662-12.252,11.31-8.948,19.321l12.583,30.526    c3.305,8.011,12.24,11.322,19.963,7.399l162.333-82.412C246.309,348.993,249.944,339.439,246.7,331.581z" fill="#FFFFFF"/>
	</g>
</g>
<g>
</g>
<g>
</g>
<g>
</g>
<g>
</g>
<g>
</g>
<g>
</g>
<g>
</g>
<g>
</g>
<g>
</g>
<g>
</g>
<g>
</g>
<g>
</g>
<g>
</g>
<g>
</g>
<g>
</g>
</svg>
