<?xml version="1.0" encoding="iso-8859-1"?>
<!-- Generator: Adobe Illustrator 19.0.0, SVG Export Plug-In . SVG Version: 6.00 Build 0)  -->
<svg xmlns="http://www.w3.org/2000/svg" xmlns:xlink="http://www.w3.org/1999/xlink" version="1.1" id="Capa_1" x="0px" y="0px" viewBox="0 0 60 60" style="enable-background:new 0 0 60 60;" xml:space="preserve" width="512px" height="512px">
<g>
	<path d="M31,1c0-0.553-0.447-1-1-1s-1,0.447-1,1v3h2V1z" fill="#FFFFFF"/>
	<path d="M31,19.051c4.077,0.369,7.516,2.97,9.085,6.57l14.014-5.347c-0.333-0.818-0.696-1.619-1.106-2.394l2.622-1.514   c0.479-0.276,0.643-0.888,0.366-1.366c-0.277-0.479-0.891-0.644-1.366-0.366l-2.626,1.516c-0.858-1.357-1.835-2.63-2.922-3.802   l2.146-2.146c0.391-0.391,0.391-1.023,0-1.414s-1.023-0.391-1.414,0l-2.146,2.146C46.48,9.847,45.207,8.87,43.85,8.012l1.516-2.626   C45.643,4.907,45.479,4.296,45,4.02c-0.478-0.276-1.09-0.114-1.366,0.366L42.12,7.008c-1.406-0.744-2.886-1.367-4.429-1.846   l0.781-2.915c0.143-0.533-0.174-1.082-0.707-1.225c-0.531-0.141-1.082,0.174-1.225,0.707L35.757,4.65   C34.218,4.301,32.629,4.087,31,4.025V19.051z" fill="#FFFFFF"/>
	<path d="M30,21c-4.963,0-9,4.037-9,9s4.037,9,9,9s9-4.037,9-9S34.963,21,30,21z M30,32c-1.104,0-2-0.896-2-2s0.896-2,2-2   s2,0.896,2,2S31.104,32,30,32z" fill="#FFFFFF"/>
	<path d="M59,31c0.553,0,1-0.447,1-1s-0.447-1-1-1h-3.025c-0.062-1.629-0.276-3.218-0.625-4.757l2.921-0.783   c0.533-0.143,0.85-0.691,0.707-1.225c-0.142-0.533-0.69-0.848-1.225-0.707l-2.915,0.781c-0.016-0.053-0.04-0.103-0.057-0.156   l-14.073,5.37C40.893,28.321,41,29.147,41,30c0,3.293-1.462,6.244-3.761,8.262l8.825,12.146c0.545-0.429,1.081-0.87,1.589-1.342   l2.146,2.146c0.195,0.195,0.451,0.293,0.707,0.293s0.512-0.098,0.707-0.293c0.391-0.391,0.391-1.023,0-1.414l-2.146-2.146   c1.086-1.172,2.064-2.446,2.922-3.802l2.626,1.516c0.157,0.091,0.329,0.134,0.499,0.134c0.346,0,0.682-0.179,0.867-0.5   c0.276-0.479,0.112-1.09-0.366-1.366l-2.622-1.514c0.744-1.406,1.367-2.886,1.846-4.429l2.915,0.781   c0.087,0.023,0.174,0.034,0.26,0.034c0.441,0,0.846-0.294,0.965-0.741c0.143-0.533-0.174-1.082-0.707-1.225l-2.921-0.783   c0.349-1.539,0.563-3.129,0.625-4.757H59z" fill="#FFFFFF"/>
	<g>
		<path d="M29,19.051V4.025c-1.629,0.062-3.218,0.275-4.757,0.625L23.46,1.729c-0.143-0.534-0.69-0.849-1.225-0.707    c-0.533,0.143-0.85,0.691-0.707,1.225l0.781,2.915c-1.543,0.479-3.023,1.102-4.429,1.846l-1.514-2.622    C16.089,3.905,15.476,3.743,15,4.02c-0.479,0.276-0.643,0.888-0.366,1.366l1.516,2.626c-1.357,0.858-2.63,1.835-3.803,2.922    l-2.146-2.146c-0.391-0.391-1.023-0.391-1.414,0s-0.391,1.023,0,1.414l2.146,2.146C9.847,13.52,8.87,14.793,8.012,16.15    l-2.626-1.516C4.908,14.356,4.296,14.521,4.02,15c-0.276,0.479-0.112,1.09,0.366,1.366l2.622,1.514    c-0.43,0.813-0.807,1.658-1.151,2.518l14.037,5.267C21.454,22.042,24.906,19.422,29,19.051z" fill="#FFFFFF"/>
		<path d="M2.247,21.528c-0.531-0.14-1.082,0.174-1.225,0.707s0.174,1.082,0.707,1.225l2.921,0.783    C4.301,25.782,4.087,27.371,4.025,29H1c-0.553,0-1,0.447-1,1s0.447,1,1,1h3.025c0.062,1.629,0.276,3.218,0.625,4.757L1.729,36.54    c-0.533,0.143-0.85,0.691-0.707,1.225c0.119,0.447,0.523,0.741,0.965,0.741c0.086,0,0.173-0.011,0.26-0.034l2.915-0.781    c0.479,1.543,1.102,3.023,1.846,4.429l-2.622,1.514C3.907,43.91,3.743,44.521,4.02,45c0.186,0.321,0.521,0.5,0.867,0.5    c0.17,0,0.342-0.043,0.499-0.134l2.626-1.516c0.858,1.357,1.835,2.63,2.922,3.802l-2.146,2.146c-0.391,0.391-0.391,1.023,0,1.414    c0.195,0.195,0.451,0.293,0.707,0.293s0.512-0.098,0.707-0.293l2.146-2.146c0.509,0.471,1.044,0.912,1.589,1.342l8.825-12.146    C20.462,36.244,19,33.293,19,30c0-0.836,0.102-1.648,0.28-2.431c0,0-14.115-5.271-14.118-5.259L2.247,21.528z" fill="#FFFFFF"/>
	</g>
	<path d="M43.85,51.988c0.203-0.128,0.391-0.278,0.591-0.412l-8.819-12.138C33.974,40.423,32.055,41,30,41s-3.974-0.577-5.622-1.562   L15.56,51.576c0.199,0.134,0.387,0.284,0.591,0.412l-1.516,2.626c-0.276,0.479-0.112,1.09,0.366,1.366   c0.157,0.091,0.329,0.134,0.499,0.134c0.346,0,0.682-0.179,0.867-0.5l1.514-2.622c1.406,0.744,2.886,1.367,4.429,1.846   l-0.781,2.915c-0.143,0.533,0.174,1.082,0.707,1.225c0.087,0.023,0.174,0.034,0.26,0.034c0.441,0,0.846-0.294,0.965-0.741   l0.783-2.921c1.539,0.35,3.129,0.563,4.757,0.625V59c0,0.553,0.447,1,1,1s1-0.447,1-1v-3.025c1.629-0.062,3.218-0.275,4.757-0.625   l0.783,2.921c0.119,0.447,0.523,0.741,0.965,0.741c0.086,0,0.173-0.011,0.26-0.034c0.533-0.143,0.85-0.691,0.707-1.225   l-0.781-2.915c1.543-0.479,3.023-1.102,4.429-1.846l1.514,2.622c0.186,0.321,0.521,0.5,0.867,0.5c0.17,0,0.342-0.043,0.499-0.134   c0.479-0.276,0.643-0.888,0.366-1.366L43.85,51.988z" fill="#FFFFFF"/>
</g>
<g>
</g>
<g>
</g>
<g>
</g>
<g>
</g>
<g>
</g>
<g>
</g>
<g>
</g>
<g>
</g>
<g>
</g>
<g>
</g>
<g>
</g>
<g>
</g>
<g>
</g>
<g>
</g>
<g>
</g>
</svg>
