<?xml version="1.0" encoding="iso-8859-1"?>
<!-- Generator: Adobe Illustrator 19.0.0, SVG Export Plug-In . SVG Version: 6.00 Build 0)  -->
<svg xmlns="http://www.w3.org/2000/svg" xmlns:xlink="http://www.w3.org/1999/xlink" version="1.1" id="Capa_1" x="0px" y="0px" viewBox="0 0 437.212 437.212" style="enable-background:new 0 0 437.212 437.212;" xml:space="preserve" width="512px" height="512px">
<g>
	<g>
		<g>
			<path d="M404.812,41.206h-300c-18,0-32.4,14.8-32.4,32.4v186.4c0,18,14.8,32.4,32.4,32.4h206.8l46.8,47.2c2,2,4.4,3.2,7.2,3.2     c5.6,0,10.4-4.4,10.4-10.4v-40h28.8c18,0,32.4-14.8,32.4-32.4v-186.4C437.212,55.606,422.412,41.206,404.812,41.206z      M150.812,201.606c-16.4,0-30-13.6-30-30c0-16.4,13.6-30,30-30c16.4,0,30,13.6,30,30     C180.812,188.006,167.612,201.606,150.812,201.606z M256.012,201.606c-16.4,0-30-13.6-30-30c0-16.4,13.6-30,30-30     c16.4,0,30,13.6,30,30C286.012,188.006,272.412,201.606,256.012,201.606z M360.812,201.606c-16.4,0-30-13.6-30-30     c0-16.4,13.6-30,30-30c16.4,0,30,13.6,30,30C390.812,188.006,377.212,201.606,360.812,201.606z" fill="#b88b58"/>
			<path d="M54.012,260.806v-63.6h-32.8c-11.6,0-21.2,9.6-21.2,21.2v122.4c-0.4,12.4,9.2,22,21.2,22h18.8v26.4     c0,3.6,3.2,6.8,6.8,6.8c2,0,3.6-0.8,4.8-2l30.8-30.8h136c11.6,0,21.2-9.6,21.2-21.2v-30.4h-134.8     C76.812,311.606,54.012,288.806,54.012,260.806z" fill="#b88b58"/>
		</g>
	</g>
</g>
<g>
</g>
<g>
</g>
<g>
</g>
<g>
</g>
<g>
</g>
<g>
</g>
<g>
</g>
<g>
</g>
<g>
</g>
<g>
</g>
<g>
</g>
<g>
</g>
<g>
</g>
<g>
</g>
<g>
</g>
</svg>
